<?xml version="1.0" encoding="UTF-8"?><svg xmlns="http://www.w3.org/2000/svg" viewBox="0 0 512 512"><g id="a"/><g id="b"><g><path d="M117.14,81.39c-96.57,58.74,43.31,367.37,138.57,329.04l144.17-61.23C486.51,282.99,349.11-7.72,258.52,22.64" fill="#30043d"/><path d="M223.67,56.99c-23.89,81.64,36.34,247.9,126.44,292.71l-102.05,43.81c-83.13,11.45-191.65-246.41-123.45-294.7l99.06-41.82Z" fill="#8e1f51"/><path d="M239.1,73.92c32.36,21.9,60.23,61.23,82.63,111.51,21.33,47.97,32.85,99.56,25.89,141.37-63.72-41.82-121.01-171.24-108.52-252.88Z" fill="#fdb36a"/><path d="M245.57,55.62c8.68-21.39,30.01-16.72,40.2-11.95,88.24,42.31,138.64,210.69,116.8,270.18-1.7,3.94-10.27,28.75-37.52,21.8,19.17-84.03-40.97-229.88-119.47-280.03Z" fill="#6b173d"/><path d="M130.58,471.66h0c0,11,8.91,19.91,19.91,19.91h228.49c11,0,19.91-8.91,19.91-19.91H130.58Z" fill="#30043d"/><path d="M130.58,471.66h63.72V205.42c0-11.05-8.95-20-20-20h-23.72c-11.05,0-20,8.95-20,20V471.66Z" fill="#30043d"/><polygon points="398.89 471.66 398.77 349.68 336.16 376.26 336.16 471.66 398.89 471.66" fill="#30043d"/><path d="M355.34,471.66h18.89c2.76,0,5-2.24,5-5v-108.68l-23.89,10.15v103.54Z" fill="#8e1f51"/><path d="M155.49,471.66h19.39V210.46c0-2.76-2.24-5-5-5h-14.39c-2.76,0-5,2.24-5,5V466.66c0,2.76,2.24,5,5,5Z" fill="#8e1f51"/></g></g></svg>